<svg xmlns="http://www.w3.org/2000/svg" width="115" height="224" viewBox="0 0 115 224">
    <g fill="#4F4F4F" fill-opacity=".06" fill-rule="nonzero" transform="translate(-3 -14)">
        <ellipse cx="36.362" cy="62.406" rx="8.137" ry="9.765" transform="rotate(39.89 36.362 62.406)"/>
        <ellipse cx="61.336" cy="83.28" rx="8.137" ry="9.765" transform="rotate(39.89 61.336 83.28)"/>
        <ellipse cx="88.805" cy="106.242" rx="8.137" ry="9.765" transform="rotate(39.89 88.805 106.242)"/>
        <ellipse cx="113.782" cy="127.116" rx="8.137" ry="9.765" transform="rotate(39.89 113.782 127.116)"/>
        <ellipse cx="27.972" cy="97.817" rx="8.137" ry="9.765" transform="rotate(39.89 27.972 97.817)"/>
        <ellipse cx="55.447" cy="120.778" rx="8.137" ry="9.765" transform="rotate(39.89 55.447 120.778)"/>
        <ellipse cx="80.422" cy="141.653" rx="8.137" ry="9.765" transform="rotate(39.89 80.422 141.653)"/>
        <ellipse cx="107.888" cy="164.614" rx="8.137" ry="9.765" transform="rotate(39.89 107.888 164.614)"/>
        <ellipse cx="12.506" cy="131.55" rx="8.137" ry="9.765" transform="rotate(39.89 12.506 131.55)"/>
        <ellipse cx="37.477" cy="152.425" rx="8.137" ry="9.765" transform="rotate(39.89 37.477 152.425)"/>
        <ellipse cx="64.949" cy="175.386" rx="8.137" ry="9.765" transform="rotate(39.89 64.95 175.386)"/>
        <ellipse cx="91.176" cy="197.304" rx="6.51" ry="9.765" transform="rotate(39.89 91.176 197.304)"/>
        <ellipse cx="117.395" cy="219.222" rx="8.137" ry="9.765" transform="rotate(39.89 117.395 219.222)"/>
        <ellipse cx="22.011" cy="186.158" rx="8.137" ry="9.765" transform="rotate(39.89 22.011 186.158)"/>
        <ellipse cx="46.98" cy="207.032" rx="8.137" ry="9.765" transform="rotate(39.89 46.98 207.032)"/>
        <ellipse cx="73.208" cy="228.95" rx="6.51" ry="9.765" transform="rotate(39.89 73.208 228.95)"/>
        <ellipse cx="97.076" cy="24.019" rx="8.137" ry="9.765" transform="rotate(39.89 97.076 24.019)"/>
        <ellipse cx="122.047" cy="44.893" rx="8.137" ry="9.765" transform="rotate(39.89 122.047 44.893)"/>
        <ellipse cx="54.134" cy="34.791" rx="8.137" ry="9.765" transform="rotate(39.89 54.134 34.79)"/>
        <ellipse cx="79.107" cy="55.665" rx="8.137" ry="9.765" transform="rotate(39.89 79.107 55.665)"/>
        <ellipse cx="106.579" cy="78.627" rx="8.137" ry="9.765" transform="rotate(39.89 106.579 78.627)"/>
    </g>
</svg>
