<svg xmlns="http://www.w3.org/2000/svg" width="60" height="18" viewBox="0 0 60 18">
    <g fill="#999" fill-rule="evenodd">
        <path d="M59.344 17.742V.181H41.03v17.561h18.313zM55.17 5.224c-1.411-.81-2.822-1.23-4.143-1.23-1.41 0-2.582.45-3.482 1.35-.931.87-1.411 1.951-1.411 3.302 0 1.29.48 2.402 1.38 3.303.961.84 2.102 1.26 3.483 1.26 1.471 0 2.912-.45 4.323-1.35v1.89c-1.321.721-2.792 1.081-4.413 1.081-1.381 0-2.522-.27-3.483-.81a6.74 6.74 0 0 1-2.251-2.252c-.54-1.02-.84-2.04-.84-3.122 0-1.8.63-3.272 1.92-4.473 1.262-1.2 2.823-1.831 4.654-1.831 1.32 0 2.731.33 4.262 1.02v1.862zM38.99.181H20.677v17.561H38.99V.181zm-12.7 2.611h3.183c1.02 0 1.801.12 2.37.39.571.3.991.66 1.262 1.111.3.48.45 1.021.45 1.651 0 1.201-.6 2.042-1.861 2.552.9.15 1.62.51 2.131 1.11.51.541.751 1.232.78 2.012-.029.6-.18 1.17-.48 1.651-.33.48-.78.871-1.41 1.201-.63.3-1.381.45-2.312.45H26.29V2.793z"/>
        <path d="M29.173 7.986c.93 0 1.591-.18 1.982-.51.39-.39.6-.84.6-1.411 0-1.14-.75-1.742-2.222-1.742h-1.5v3.663h1.14zm.48 1.56h-1.62v3.813h1.74c.811 0 1.472-.06 1.892-.18.39-.21.66-.45.84-.72.18-.3.3-.63.3-.99-.03-.361-.12-.692-.33-.991-.18-.331-.48-.571-.9-.721-.39-.15-1.05-.24-1.921-.21zM18.577.182H.263v17.561h18.313V.181zM5.847 14.92V2.791H9.03c1.02 0 1.77.12 2.341.39.57.27 1.02.66 1.291 1.141.3.45.45.99.48 1.621-.03 1.2-.63 2.041-1.89 2.582.93.15 1.62.51 2.13 1.08.511.54.781 1.231.781 2.012 0 .63-.15 1.2-.48 1.65-.33.51-.78.901-1.38 1.202-.631.3-1.412.45-2.342.45H5.847z"/>
        <path d="M9.09 4.323H7.589v3.663h1.17c.901 0 1.561-.18 1.952-.51.39-.36.6-.84.6-1.381 0-1.171-.75-1.772-2.221-1.772zm.12 5.224H7.589v3.812h1.71c.901 0 1.562-.06 1.952-.18.33-.15.6-.36.81-.66.18-.33.27-.661.3-1.05-.03-.421-.15-.751-.33-.991a1.604 1.604 0 0 0-.9-.691c-.42-.18-1.08-.24-1.921-.24z"/>
    </g>
</svg>
